<?xml version="1.0" encoding="UTF-8"?>
<svg width="16px" height="16px" viewBox="0 0 16 16" version="1.1" xmlns="http://www.w3.org/2000/svg" xmlns:xlink="http://www.w3.org/1999/xlink">
    <title>编组</title>
    <g id="f" stroke="none" stroke-width="1" fill="none" fill-rule="evenodd">
        <g id="附件上传备份" transform="translate(-847.000000, -483.000000)" fill="#3E4A6B" fill-rule="nonzero">
            <g id="编组" transform="translate(847.000000, 483.000000)">
                <path d="M15.2058579,3.48248363 L8.79911608,0.187284759 C8.30334598,-0.0624282531 7.69667512,-0.0624282531 7.20090501,0.187284759 L0.794163241,3.48248363 C0.301114481,3.7344767 -0.00205561076,4.20246389 1.0493369e-05,4.70835767 L1.0493369e-05,11.2916898 C-0.000816527631,11.7972902 0.302020993,12.264764 0.794163241,12.5175639 L7.2058684,15.804814 C7.44716571,15.9298634 7.72078232,15.9971135 8.00001049,16 C8.2796177,15.9995386 8.55392941,15.9321177 8.79415269,15.804814 L15.2008945,12.5175639 C15.6930083,12.2641588 15.9971646,11.7975654 16,11.2916898 L16,4.70835767 C15.9981946,4.20338756 15.6960623,3.73700232 15.2058579,3.48248363 Z M7.86004299,1.19942571 C7.90403023,1.18120888 7.95155444,1.17071317 8.00001055,1.16851391 C8.04572283,1.17181516 8.09041927,1.18228011 8.13203668,1.19942571 L14.0116666,4.22171747 L9.97444646,6.30164064 C9.46680677,5.80726343 8.7475591,5.52732536 7.99493779,5.53119693 C7.24231648,5.53506851 6.52675515,5.82238741 6.02557463,6.32195411 L1.9794204,4.22436705 L7.86004299,1.19942571 Z M1.44833783,11.5018902 C1.36526121,11.4579648 1.3151952,11.3776503 1.31730438,11.2916898 L1.31730438,5.24004079 L5.40217305,7.34027743 C5.34763615,7.52688271 5.31995067,7.71889379 5.3197808,7.9117043 L5.3197808,7.91965305 C5.32261163,9.0049777 6.14882049,9.95169547 7.32995311,10.2230244 L7.32995311,14.5259483 L1.44833783,11.5018902 Z M14.6747753,11.2916898 C14.673395,11.3789019 14.6201155,11.4589159 14.5348077,11.5018902 L8.64922175,14.5356634 L8.64922175,10.2292068 C9.84672974,9.96580483 10.6875271,9.00921456 10.6861964,7.9117043 C10.6868249,7.71697886 10.6601475,7.5229442 10.6067821,7.33409507 L14.6767606,5.24180717 L14.6747753,11.2916898 Z" id="形状"></path>
            </g>
        </g>
    </g>
</svg>