<svg xmlns="http://www.w3.org/2000/svg" width="18" height="18" viewBox="0 0 18 18" fill="none">
  <path d="M1.5 8.99985C1.5 8.35147 1.58227 7.7223 1.73696 7.12223C2.55466 7.16462 3.36636 6.75761 3.80385 5.99986C4.241 5.24269 4.18805 4.33703 3.74341 3.65026C4.63766 2.77147 5.75124 2.11516 6.99452 1.771C7.36665 2.50039 8.12498 2.99986 9 2.99986C9.87502 2.99986 10.6333 2.50039 11.0055 1.771C12.2488 2.11516 13.3624 2.77147 14.2566 3.65026C13.8119 4.33703 13.759 5.24269 14.1961 5.99986C14.6336 6.75761 15.4453 7.16462 16.2631 7.12223C16.4177 7.7223 16.5 8.35147 16.5 8.99985C16.5 9.64822 16.4177 10.2774 16.2631 10.8775C15.4453 10.8351 14.6336 11.2421 14.1961 11.9998C13.759 12.757 13.8119 13.6627 14.2566 14.3494C13.3624 15.2282 12.2488 15.8845 11.0055 16.2287C10.6333 15.4993 9.87502 14.9998 9 14.9998C8.12498 14.9998 7.36665 15.4993 6.99452 16.2287C5.75124 15.8845 4.63766 15.2282 3.74341 14.3494C4.18805 13.6627 4.241 12.757 3.80385 11.9998C3.36636 11.2421 2.55466 10.8351 1.73696 10.8775C1.58227 10.2774 1.5 9.64822 1.5 8.99985ZM5.10289 11.2498C5.57546 12.0684 5.71093 13.0094 5.52613 13.8927C5.83198 14.1103 6.15754 14.2989 6.49867 14.4556C7.17132 13.8534 8.0544 13.4998 9 13.4998C9.9456 13.4998 10.8287 13.8534 11.5013 14.4556C11.8424 14.2989 12.168 14.1103 12.4739 13.8927C12.2891 13.0094 12.4245 12.0684 12.8972 11.2498C13.3696 10.4314 14.1169 9.8436 14.9741 9.56197C14.9913 9.37612 15 9.1887 15 8.99985C15 8.81107 14.9913 8.62357 14.9741 8.4378C14.1169 8.15617 13.3696 7.5684 12.8972 6.74986C12.4245 5.93134 12.2891 4.99033 12.4739 4.10704C12.168 3.88941 11.8424 3.70085 11.5013 3.54414C10.8287 4.14633 9.9456 4.49986 9 4.49986C8.0544 4.49986 7.17132 4.14633 6.49867 3.54414C6.15754 3.70085 5.83198 3.88941 5.52613 4.10704C5.71093 4.99033 5.57546 5.93134 5.10289 6.74986C4.63032 7.5684 3.88316 8.15617 3.02588 8.4378C3.00868 8.62357 3 8.81107 3 8.99985C3 9.1887 3.00868 9.37612 3.02588 9.56197C3.88316 9.8436 4.63032 10.4314 5.10289 11.2498ZM9 11.2498C7.75733 11.2498 6.75 10.2425 6.75 8.99985C6.75 7.75725 7.75733 6.74986 9 6.74986C10.2427 6.74986 11.25 7.75725 11.25 8.99985C11.25 10.2425 10.2427 11.2498 9 11.2498ZM9 9.74985C9.41423 9.74985 9.75 9.41407 9.75 8.99985C9.75 8.58562 9.41423 8.24985 9 8.24985C8.58577 8.24985 8.25 8.58562 8.25 8.99985C8.25 9.41407 8.58577 9.74985 9 9.74985Z" fill="#4E5969"/>
</svg>
