<svg xmlns="http://www.w3.org/2000/svg" width="18" height="18" viewBox="0 0 18 18" fill="none">
  <path d="M9 1.5C13.1421 1.5 16.5 4.85786 16.5 9C16.5 13.1421 13.1421 16.5 9 16.5C4.85786 16.5 1.5 13.1421 1.5 9C1.5 4.85786 4.85786 1.5 9 1.5ZM9.11978 12C7.59323 12 6.21886 12.6515 5.25957 13.6917C6.28529 14.5105 7.5855 15 9 15C10.4771 15 11.8295 14.4662 12.8749 13.5811C11.9217 12.6056 10.5914 12 9.11978 12ZM9 3C5.68629 3 3 5.68629 3 9C3 10.358 3.45113 11.6105 4.21168 12.616C5.44229 11.3131 7.18608 10.5 9.11978 10.5C10.9831 10.5 12.67 11.2549 13.8913 12.4756C14.5894 11.495 15 10.2955 15 9C15 5.68629 12.3137 3 9 3ZM9 3.75C10.6568 3.75 12 5.09314 12 6.75C12 8.40683 10.6568 9.75 9 9.75C7.34314 9.75 6 8.40683 6 6.75C6 5.09314 7.34314 3.75 9 3.75ZM9 5.25C8.17155 5.25 7.5 5.92157 7.5 6.75C7.5 7.57845 8.17155 8.25 9 8.25C9.82845 8.25 10.5 7.57845 10.5 6.75C10.5 5.92157 9.82845 5.25 9 5.25Z" fill="#4E5969"/>
</svg>
