<svg xmlns="http://www.w3.org/2000/svg" width="32" height="32" viewBox="0 0 32 32"><g fill="none"><circle cx="14" cy="13" r="9" fill="url(#a)"/><circle cx="14" cy="13" r="9" fill="url(#b)" fill-opacity=".6"/><circle cx="14" cy="13" r="9" fill="url(#c)" fill-opacity=".6"/><rect width="17" height="17" x="13" y="12" fill="url(#d)" rx="4.5"/><path fill="url(#e)" fill-rule="evenodd" d="M14 22a9 9 0 0 0 8.945-10H17.5a4.5 4.5 0 0 0-4.5 4.5v5.445q.492.055 1 .055" clip-rule="evenodd"/><path fill="url(#f)" fill-rule="evenodd" d="M14 22a9 9 0 0 0 8.945-10H17.5a4.5 4.5 0 0 0-4.5 4.5v5.445q.492.055 1 .055" clip-rule="evenodd"/><path fill="url(#g)" d="M10 18.627C10 26.098 7.875 30 6 30c-1.625 0-4-3.238-4-11.373 0-6.946 1.79-8.053 4-8.053 1.969 0 4 .581 4 8.053"/><path fill="url(#h)" fill-opacity=".5" d="M10 18.627C10 26.098 7.875 30 6 30c-1.625 0-4-3.238-4-11.373 0-6.946 1.79-8.053 4-8.053 1.969 0 4 .581 4 8.053"/><path fill="url(#i)" d="M10 18.627C10 26.098 7.875 30 6 30c-1.625 0-4-3.238-4-11.373 0-6.946 1.79-8.053 4-8.053 1.969 0 4 .581 4 8.053"/><path fill="url(#j)" fill-opacity=".7" d="M10 18.627C10 26.098 7.875 30 6 30c-1.625 0-4-3.238-4-11.373 0-6.946 1.79-8.053 4-8.053 1.969 0 4 .581 4 8.053"/><path fill="#fff" fill-opacity=".15" d="M2.092 16.156c.392-4.75 1.993-5.582 3.908-5.582 1.725 0 3.498.446 3.91 5.583a7.43 7.43 0 0 1-3.908 1.086 7.43 7.43 0 0 1-3.91-1.087"/><path fill="url(#k)" d="M7.75 2.977a1 1 0 0 0-1.638-.747C4.393 3.657 3.35 4.837 2.744 5.94 2.119 7.077 2 8.064 2 9a4 4 0 0 0 8 0c0-1.28-.626-2.23-1.116-2.974l-.144-.22c-.521-.806-.963-1.59-.99-2.829"/><defs><radialGradient id="a" cx="0" cy="0" r="1" gradientTransform="rotate(-78.382 19.528 9.11) scale(24.3503)" gradientUnits="userSpaceOnUse"><stop offset=".222" stop-color="#4e46e2"/><stop offset=".578" stop-color="#625df6"/><stop offset=".955" stop-color="#e37dff"/></radialGradient><radialGradient id="b" cx="0" cy="0" r="1" gradientTransform="rotate(-17.281 59.643 .193) scale(9.83002 12.8674)" gradientUnits="userSpaceOnUse"><stop offset=".566" stop-color="#251fba"/><stop offset="1" stop-color="#5e51e4" stop-opacity="0"/></radialGradient><radialGradient id="c" cx="0" cy="0" r="1" gradientTransform="rotate(8.259 -75.545 19.116) scale(9.04231 9.24303)" gradientUnits="userSpaceOnUse"><stop offset=".566" stop-color="#251fba"/><stop offset="1" stop-color="#5e51e4" stop-opacity="0"/></radialGradient><radialGradient id="d" cx="0" cy="0" r="1" gradientTransform="matrix(14.8285 13.56988 -18.43158 20.14113 15.171 13.214)" gradientUnits="userSpaceOnUse"><stop stop-color="#c354ff"/><stop offset=".158" stop-color="#b339f0"/><stop offset=".429" stop-color="#f24a9d"/><stop offset=".749" stop-color="#ff835c"/><stop offset="1" stop-color="#ffc470"/></radialGradient><radialGradient id="h" cx="0" cy="0" r="1" gradientTransform="matrix(3.02083 19.076 -48.46172 7.67428 5.667 9.36)" gradientUnits="userSpaceOnUse"><stop offset=".5" stop-color="#dd3ce2" stop-opacity="0"/><stop offset="1" stop-color="#dd3ce2"/></radialGradient><radialGradient id="j" cx="0" cy="0" r="1" gradientTransform="matrix(3.68975 -9.13383 17.9553 7.25332 3.46 10.3)" gradientUnits="userSpaceOnUse"><stop offset=".169" stop-color="#02888d"/><stop offset=".26" stop-color="#02888d" stop-opacity="0"/></radialGradient><radialGradient id="k" cx="0" cy="0" r="1" gradientTransform="matrix(-2.60163 8.02367 -8.62519 -2.79667 7.698 5.594)" gradientUnits="userSpaceOnUse"><stop stop-color="#ff9532"/><stop offset=".251" stop-color="#ff835c"/><stop offset="1" stop-color="#f24a9d"/></radialGradient><linearGradient id="e" x1="22.101" x2="14.834" y1="21.913" y2="11.234" gradientUnits="userSpaceOnUse"><stop offset=".195" stop-color="#6d37cd"/><stop offset=".765" stop-color="#ea71ef"/></linearGradient><linearGradient id="f" x1="23.638" x2="12.05" y1="24.424" y2="8.228" gradientUnits="userSpaceOnUse"><stop offset=".195" stop-color="#7631ff"/><stop offset=".886" stop-color="#e63080"/></linearGradient><linearGradient id="g" x1=".125" x2="8.846" y1="18.82" y2="28.295" gradientUnits="userSpaceOnUse"><stop stop-color="#0fafff"/><stop offset="1" stop-color="#2764e7"/></linearGradient><linearGradient id="i" x1="13" x2="-1" y1="19.472" y2="19.472" gradientUnits="userSpaceOnUse"><stop offset=".307" stop-color="#0d91e1"/><stop offset=".761" stop-color="#52b471"/></linearGradient></defs></g></svg>