<svg xmlns="http://www.w3.org/2000/svg" width="32" height="32" viewBox="0 0 32 32"><g fill="none"><path fill="url(#a)" d="M26.394 12.39a5 5 0 1 0-6.785-6.785 11.03 11.03 0 0 1 6.785 6.786"/><path fill="url(#b)" d="M26.394 12.39a5 5 0 1 0-6.785-6.785 11.03 11.03 0 0 1 6.785 6.786"/><path fill="url(#c)" d="M12.39 5.606a11.03 11.03 0 0 0-6.784 6.785 5 5 0 1 1 6.785-6.785"/><path fill="url(#d)" d="M12.39 5.606a11.03 11.03 0 0 0-6.784 6.785 5 5 0 1 1 6.785-6.785"/><path fill="url(#e)" d="m5.707 27.707 3-3-1.414-1.414-3 3a1 1 0 0 0 1.414 1.414"/><path fill="url(#f)" d="m27.707 26.293-3-3-1.414 1.414 3 3a1 1 0 1 0 1.414-1.414"/><path fill="url(#g)" d="M28 16c0 6.627-5.373 12-12 12S4 22.627 4 16 9.373 4 16 4s12 5.373 12 12"/><path fill="url(#h)" d="M26 16c0 5.523-4.477 10-10 10S6 21.523 6 16 10.477 6 16 6s10 4.477 10 10"/><path fill="url(#i)" fill-rule="evenodd" d="M15 9a1 1 0 0 1 1 1v6h4a1 1 0 1 1 0 2h-5a1 1 0 0 1-1-1v-7a1 1 0 0 1 1-1" clip-rule="evenodd"/><defs><linearGradient id="a" x1="30.106" x2="20.77" y1="12.826" y2="5.188" gradientUnits="userSpaceOnUse"><stop stop-color="#ff6f47"/><stop offset="1" stop-color="#ffcd0f"/></linearGradient><linearGradient id="c" x1="13.844" x2="4.507" y1="13.826" y2="6.188" gradientUnits="userSpaceOnUse"><stop stop-color="#ff6f47"/><stop offset="1" stop-color="#ffcd0f"/></linearGradient><linearGradient id="e" x1="5" x2="5.946" y1="21.272" y2="29.551" gradientUnits="userSpaceOnUse"><stop stop-color="#cad2d9"/><stop offset="1" stop-color="#70777d"/></linearGradient><linearGradient id="f" x1="5" x2="5.946" y1="21.272" y2="29.551" gradientUnits="userSpaceOnUse"><stop stop-color="#cad2d9"/><stop offset="1" stop-color="#70777d"/></linearGradient><linearGradient id="g" x1="8" x2="20" y1="2.667" y2="29.333" gradientUnits="userSpaceOnUse"><stop stop-color="#1ec8b0"/><stop offset="1" stop-color="#2764e7"/></linearGradient><linearGradient id="h" x1="9.043" x2="22.087" y1="3.826" y2="31.652" gradientUnits="userSpaceOnUse"><stop stop-color="#fdfdfd"/><stop offset="1" stop-color="#dedeff"/></linearGradient><linearGradient id="i" x1="16.8" x2="20.573" y1="10.845" y2="17.132" gradientUnits="userSpaceOnUse"><stop stop-color="#1ec8b0"/><stop offset="1" stop-color="#2764e7"/></linearGradient><radialGradient id="b" cx="0" cy="0" r="1" gradientTransform="rotate(-45 27.718 -12.973) scale(14.7078)" gradientUnits="userSpaceOnUse"><stop offset=".644" stop-color="#ff6f47"/><stop offset=".942" stop-color="#ff6f47" stop-opacity="0"/></radialGradient><radialGradient id="d" cx="0" cy="0" r="1" gradientTransform="rotate(-135 11.88 4.92) scale(14.7078)" gradientUnits="userSpaceOnUse"><stop offset=".659" stop-color="#ff6f47"/><stop offset=".949" stop-color="#ff6f47" stop-opacity="0"/></radialGradient></defs></g></svg>