<svg xmlns="http://www.w3.org/2000/svg" width="32" height="32" viewBox="0 0 32 32"><g fill="none"><path fill="url(#a)" d="M3 7.5A4.5 4.5 0 0 1 7.5 3h17A4.5 4.5 0 0 1 29 7.5v17a4.5 4.5 0 0 1-4.5 4.5h-17A4.5 4.5 0 0 1 3 24.5z"/><path fill="url(#b)" d="M28.356 26.82A4.5 4.5 0 0 1 24.5 29h-17a4.5 4.5 0 0 1-3.856-2.18l10.588-10.588a2.5 2.5 0 0 1 3.536 0z"/><path fill="url(#c)" d="M19 11a3 3 0 1 1 6 0 3 3 0 0 1-6 0"/><path fill="url(#d)" d="M3 7.5A4.5 4.5 0 0 1 7.5 3h17A4.5 4.5 0 0 1 29 7.5v17a4.5 4.5 0 0 1-4.5 4.5h-17A4.5 4.5 0 0 1 3 24.5z"/><path fill="url(#e)" d="M2.366 2.366a1.25 1.25 0 0 1 1.768 0l25.5 25.5a1.25 1.25 0 0 1-1.768 1.768l-25.5-25.5a1.25 1.25 0 0 1 0-1.768"/><defs><linearGradient id="b" x1="12.469" x2="15.605" y1="15.5" y2="29.673" gradientUnits="userSpaceOnUse"><stop stop-color="#e7dede"/><stop offset="1" stop-color="#d3d3d3"/></linearGradient><linearGradient id="c" x1="20.8" x2="22.992" y1="7.333" y2="15.225" gradientUnits="userSpaceOnUse"><stop stop-color="#fdfdfd"/><stop offset="1" stop-color="#e4e4e4"/></linearGradient><linearGradient id="d" x1="29" x2="3" y1="3" y2="29" gradientUnits="userSpaceOnUse"><stop offset=".464" stop-opacity="0"/><stop offset=".484"/><stop offset=".573" stop-opacity="0"/></linearGradient><linearGradient id="e" x1="2" x2="24.75" y1="-3.25" y2="30.875" gradientUnits="userSpaceOnUse"><stop stop-color="#e82c41"/><stop offset="1" stop-color="#aa1d2d"/></linearGradient><radialGradient id="a" cx="0" cy="0" r="1" gradientTransform="matrix(44.57142 56.41068 -51.30938 40.54076 -7.214 -11.625)" gradientUnits="userSpaceOnUse"><stop offset=".338" stop-color="#a9a9a9"/><stop offset=".695" stop-color="#898989"/></radialGradient></defs></g></svg>