<svg xmlns="http://www.w3.org/2000/svg" width="32" height="32" viewBox="0 0 32 32"><g fill="none"><path fill="url(#a)" d="M26 27.011a3 3 0 0 0-.25-.011H5.25a.25.25 0 0 1-.25-.25V13.484l5.606-2.403a1 1 0 0 1 .841.025l5.447 2.723L24.4 8.2A1 1 0 0 1 26 9z"/><path fill="url(#b)" fill-opacity=".3" d="M26 27.011a3 3 0 0 0-.25-.011H5.25a.25.25 0 0 1-.25-.25V13.484l5.606-2.403a1 1 0 0 1 .841.025l5.447 2.723L24.4 8.2A1 1 0 0 1 26 9z"/><path fill="url(#c)" fill-opacity=".3" d="M26 27.011a3 3 0 0 0-.25-.011H5.25a.25.25 0 0 1-.25-.25V13.484l5.606-2.403a1 1 0 0 1 .841.025l5.447 2.723L24.4 8.2A1 1 0 0 1 26 9z"/><path fill="url(#d)" fill-opacity=".3" d="M26 27.011a3 3 0 0 0-.25-.011H5.25a.25.25 0 0 1-.25-.25V13.484l5.606-2.403a1 1 0 0 1 .841.025l5.447 2.723L24.4 8.2A1 1 0 0 1 26 9z"/><path fill="url(#e)" d="M4.25 3c.69 0 1.25.56 1.25 1.25v20.5c0 .966.784 1.75 1.75 1.75h20.5a1.25 1.25 0 1 1 0 2.5H7.25A4.25 4.25 0 0 1 3 24.75V4.25C3 3.56 3.56 3 4.25 3"/><defs><linearGradient id="a" x1="-2.269" x2="32.117" y1="10.376" y2="30.761" gradientUnits="userSpaceOnUse"><stop offset=".164" stop-color="#3bd5ff"/><stop offset=".537" stop-color="#9c6cfe"/><stop offset=".908" stop-color="#e656eb"/></linearGradient><linearGradient id="c" x1="15.5" x2="15.5" y1="25" y2="27.011" gradientUnits="userSpaceOnUse"><stop stop-color="#163697" stop-opacity="0"/><stop offset="1" stop-color="#163697"/></linearGradient><linearGradient id="d" x1="7" x2="5" y1="21.5" y2="21.466" gradientUnits="userSpaceOnUse"><stop stop-color="#163697" stop-opacity="0"/><stop offset="1" stop-color="#163697"/></linearGradient><linearGradient id="e" x1="26.563" x2="3.809" y1="4.625" y2="38.505" gradientUnits="userSpaceOnUse"><stop stop-color="#70777d"/><stop offset="1" stop-color="#b9c0c7"/></linearGradient><radialGradient id="b" cx="0" cy="0" r="1" gradientTransform="matrix(-16.15373 14.25848 -14.39169 -16.30465 22.77 11.168)" gradientUnits="userSpaceOnUse"><stop offset=".636" stop-color="#0fafff" stop-opacity="0"/><stop offset="1" stop-color="#0067bf"/></radialGradient></defs></g></svg>