<svg xmlns="http://www.w3.org/2000/svg" width="32" height="32" viewBox="0 0 32 32"><g fill="none"><path fill="url(#a)" fill-rule="evenodd" d="M28.64 5.276C28.2 5.71 27.407 6 26.5 6 25.12 6 24 5.328 24 4.5c0-.175.05-.344.142-.5H6.5A4.5 4.5 0 0 0 2 8.5v15A4.5 4.5 0 0 0 6.5 28h19a4.5 4.5 0 0 0 4.5-4.5v-15a4.5 4.5 0 0 0-1.36-3.224" clip-rule="evenodd"/><path fill="url(#b)" fill-opacity=".3" fill-rule="evenodd" d="M28.64 5.276C28.2 5.71 27.407 6 26.5 6 25.12 6 24 5.328 24 4.5c0-.175.05-.344.142-.5H6.5A4.5 4.5 0 0 0 2 8.5v15A4.5 4.5 0 0 0 6.5 28h19a4.5 4.5 0 0 0 4.5-4.5v-15a4.5 4.5 0 0 0-1.36-3.224" clip-rule="evenodd"/><path fill="url(#c)" fill-opacity=".3" fill-rule="evenodd" d="M28.64 5.276C28.2 5.71 27.407 6 26.5 6 25.12 6 24 5.328 24 4.5c0-.175.05-.344.142-.5H6.5A4.5 4.5 0 0 0 2 8.5v15A4.5 4.5 0 0 0 6.5 28h19a4.5 4.5 0 0 0 4.5-4.5v-15a4.5 4.5 0 0 0-1.36-3.224" clip-rule="evenodd"/><path fill="url(#d)" fill-opacity=".3" fill-rule="evenodd" d="M28.64 5.276C28.2 5.71 27.407 6 26.5 6 25.12 6 24 5.328 24 4.5c0-.175.05-.344.142-.5H6.5A4.5 4.5 0 0 0 2 8.5v15A4.5 4.5 0 0 0 6.5 28h19a4.5 4.5 0 0 0 4.5-4.5v-15a4.5 4.5 0 0 0-1.36-3.224" clip-rule="evenodd"/><path fill="url(#e)" fill-opacity=".6" fill-rule="evenodd" d="M28.64 5.276C28.2 5.71 27.407 6 26.5 6 25.12 6 24 5.328 24 4.5c0-.175.05-.344.142-.5H6.5A4.5 4.5 0 0 0 2 8.5v15A4.5 4.5 0 0 0 6.5 28h19a4.5 4.5 0 0 0 4.5-4.5v-15a4.5 4.5 0 0 0-1.36-3.224" clip-rule="evenodd"/><path fill="url(#f)" fill-opacity=".4" fill-rule="evenodd" d="M28.64 5.276C28.2 5.71 27.407 6 26.5 6 25.12 6 24 5.328 24 4.5c0-.175.05-.344.142-.5H6.5A4.5 4.5 0 0 0 2 8.5v15A4.5 4.5 0 0 0 6.5 28h19a4.5 4.5 0 0 0 4.5-4.5v-15a4.5 4.5 0 0 0-1.36-3.224" clip-rule="evenodd"/><path fill="#212121" d="m30.821 12.358.918.298.019.004a.362.362 0 0 1 0 .684l-.919.299a1.9 1.9 0 0 0-1.198 1.197l-.299.918a.363.363 0 0 1-.684 0l-.299-.918a1.89 1.89 0 0 0-1.198-1.202l-.919-.298a.362.362 0 0 1 0-.684l.919-.299a1.9 1.9 0 0 0 1.18-1.197l.299-.918a.363.363 0 0 1 .684 0l.298.918a1.89 1.89 0 0 0 1.199 1.197"/><path fill="url(#g)" d="m30.821 12.358.918.298.019.004a.362.362 0 0 1 0 .684l-.919.299a1.9 1.9 0 0 0-1.198 1.197l-.299.918a.363.363 0 0 1-.684 0l-.299-.918a1.89 1.89 0 0 0-1.198-1.202l-.919-.298a.362.362 0 0 1 0-.684l.919-.299a1.9 1.9 0 0 0 1.18-1.197l.299-.918a.363.363 0 0 1 .684 0l.298.918a1.89 1.89 0 0 0 1.199 1.197"/><path fill="url(#h)" d="M21.488 7.511a3.5 3.5 0 0 1 .837 1.363l.548 1.682a.664.664 0 0 0 1.254 0l.548-1.682a3.47 3.47 0 0 1 2.197-2.196l1.684-.547a.665.665 0 0 0 0-1.254l-.034-.008-1.683-.547a3.47 3.47 0 0 1-2.198-2.196L24.094.444a.665.665 0 0 0-1.255 0l-.547 1.682-.014.042a3.47 3.47 0 0 1-2.15 2.154l-1.684.547a.665.665 0 0 0 0 1.254l1.684.546c.513.171.979.46 1.36.842"/><rect width="8" height="2" x="8" y="9" fill="url(#i)" rx="1"/><rect width="15" height="2" x="8" y="14" fill="url(#j)" rx="1"/><rect width="10" height="2" x="8" y="19" fill="url(#k)" rx="1"/><defs><linearGradient id="a" x1="2.569" x2="24.281" y1="27.819" y2="2.258" gradientUnits="userSpaceOnUse"><stop stop-color="#fc92cb"/><stop offset=".51" stop-color="#dd3ce2"/><stop offset="1" stop-color="#b91cbf"/></linearGradient><linearGradient id="g" x1="29.123" x2="20.116" y1="12.59" y2="5.343" gradientUnits="userSpaceOnUse"><stop stop-color="#fee5ff"/><stop offset=".964" stop-color="#f0b6f2"/></linearGradient><linearGradient id="h" x1="28.796" x2="20.046" y1="12.223" y2="5.191" gradientUnits="userSpaceOnUse"><stop stop-color="#fee5ff"/><stop offset=".964" stop-color="#f0b6f2"/></linearGradient><linearGradient id="i" x1="15.667" x2="7" y1="10" y2="10" gradientUnits="userSpaceOnUse"><stop stop-color="#fee5ff"/><stop offset=".964" stop-color="#f0b6f2"/></linearGradient><linearGradient id="j" x1="22.375" x2="6.125" y1="15" y2="15" gradientUnits="userSpaceOnUse"><stop stop-color="#fee5ff"/><stop offset=".964" stop-color="#f0b6f2"/></linearGradient><linearGradient id="k" x1="17.583" x2="6.75" y1="20" y2="20" gradientUnits="userSpaceOnUse"><stop stop-color="#fee5ff"/><stop offset=".964" stop-color="#f0b6f2"/></linearGradient><radialGradient id="b" cx="0" cy="0" r="1" gradientTransform="matrix(0 1.5 -5.39063 0 12 10.5)" gradientUnits="userSpaceOnUse"><stop stop-color="#55107a"/><stop offset="1" stop-color="#55107a" stop-opacity="0"/></radialGradient><radialGradient id="c" cx="0" cy="0" r="1" gradientTransform="matrix(0 2 -10.4301 0 16 15.5)" gradientUnits="userSpaceOnUse"><stop stop-color="#55107a"/><stop offset="1" stop-color="#55107a" stop-opacity="0"/></radialGradient><radialGradient id="d" cx="0" cy="0" r="1" gradientTransform="matrix(0 2 -7.18751 0 13 20.5)" gradientUnits="userSpaceOnUse"><stop stop-color="#55107a"/><stop offset="1" stop-color="#55107a" stop-opacity="0"/></radialGradient><radialGradient id="e" cx="0" cy="0" r="1" gradientTransform="matrix(0 6 -7.58507 0 23.5 6)" gradientUnits="userSpaceOnUse"><stop stop-color="#55107a"/><stop offset="1" stop-color="#55107a" stop-opacity="0"/></radialGradient><radialGradient id="f" cx="0" cy="0" r="1" gradientTransform="matrix(0 4 -4.15095 0 29 14)" gradientUnits="userSpaceOnUse"><stop stop-color="#55107a"/><stop offset="1" stop-color="#55107a" stop-opacity="0"/></radialGradient></defs></g></svg>