<svg xmlns="http://www.w3.org/2000/svg" width="32" height="32" viewBox="0 0 32 32"><g fill="none"><path fill="url(#a)" d="m14.75 16 11.724-8.072C27.967 6.9 30 7.968 30 9.78v12.438c0 1.812-2.033 2.881-3.526 1.853z"/><path fill="url(#b)" fill-opacity=".75" d="m14.75 16 11.724-8.072C27.967 6.9 30 7.968 30 9.78v12.438c0 1.812-2.033 2.881-3.526 1.853z"/><path fill="url(#c)" d="M2 10.5A4.5 4.5 0 0 1 6.5 6h10a4.5 4.5 0 0 1 4.5 4.5v11a4.5 4.5 0 0 1-4.5 4.5h-10A4.5 4.5 0 0 1 2 21.5z"/><path fill="url(#d)" d="M4 20.5A3.5 3.5 0 0 1 7.5 17h8a3.5 3.5 0 1 1 0 7h-8A3.5 3.5 0 0 1 4 20.5" opacity=".5"/><path fill="#babaff" fill-rule="evenodd" d="M7.5 19a1.5 1.5 0 0 0 0 3h4a1.5 1.5 0 0 0 0-3zm8 0a1.5 1.5 0 1 0 0 3 1.5 1.5 0 0 0 0-3" clip-rule="evenodd"/><defs><radialGradient id="a" cx="0" cy="0" r="1" gradientTransform="matrix(7.30128 22.12922 -43.89198 14.48164 22.699 5.234)" gradientUnits="userSpaceOnUse"><stop offset=".081" stop-color="#f08af4"/><stop offset=".394" stop-color="#9c6cfe"/><stop offset="1" stop-color="#4e44db"/></radialGradient><radialGradient id="c" cx="0" cy="0" r="1" gradientTransform="matrix(21.8603 21.1668 -44.45245 45.90887 -1.454 6.833)" gradientUnits="userSpaceOnUse"><stop stop-color="#f08af4"/><stop offset=".341" stop-color="#9c6cfe"/><stop offset="1" stop-color="#4e44db"/></radialGradient><linearGradient id="b" x1="18.399" x2="29.985" y1="16" y2="15.584" gradientUnits="userSpaceOnUse"><stop stop-color="#312a9a"/><stop offset="1" stop-color="#312a9a" stop-opacity="0"/></linearGradient><linearGradient id="d" x1="3.659" x2="6.14" y1="17" y2="26.294" gradientUnits="userSpaceOnUse"><stop stop-color="#3b148a"/><stop offset="1" stop-color="#4b20a0"/></linearGradient></defs></g></svg>