<svg xmlns="http://www.w3.org/2000/svg" width="32" height="32" viewBox="0 0 32 32"><g fill="none"><path fill="url(#a)" d="M14 5a1 1 0 1 0 0 2h15a1 1 0 1 0 0-2z"/><path fill="url(#b)" d="M13 16a1 1 0 0 1 1-1h15a1 1 0 1 1 0 2H14a1 1 0 0 1-1-1"/><path fill="url(#c)" d="M13 26a1 1 0 0 1 1-1h15a1 1 0 1 1 0 2H14a1 1 0 0 1-1-1"/><path fill="url(#d)" d="M5 2a3 3 0 0 0-3 3v2a3 3 0 0 0 3 3h2a3 3 0 0 0 3-3V5a3 3 0 0 0-3-3z"/><path fill="url(#e)" d="M2 15a3 3 0 0 1 3-3h2a3 3 0 0 1 3 3v2a3 3 0 0 1-3 3H5a3 3 0 0 1-3-3z"/><path fill="url(#f)" d="M5 22a3 3 0 0 0-3 3v2a3 3 0 0 0 3 3h2a3 3 0 0 0 3-3v-2a3 3 0 0 0-3-3z"/><defs><linearGradient id="a" x1="10.45" x2="29.466" y1="1.857" y2="26.085" gradientUnits="userSpaceOnUse"><stop stop-color="#36dff1"/><stop offset="1" stop-color="#0094f0"/></linearGradient><linearGradient id="b" x1="10.45" x2="29.466" y1="1.857" y2="26.085" gradientUnits="userSpaceOnUse"><stop stop-color="#36dff1"/><stop offset="1" stop-color="#0094f0"/></linearGradient><linearGradient id="c" x1="10.45" x2="29.466" y1="1.857" y2="26.085" gradientUnits="userSpaceOnUse"><stop stop-color="#36dff1"/><stop offset="1" stop-color="#0094f0"/></linearGradient><linearGradient id="d" x1="3.902" x2="8.379" y1="5.722" y2="28.429" gradientUnits="userSpaceOnUse"><stop offset=".125" stop-color="#9c6cfe"/><stop offset="1" stop-color="#7a41dc"/></linearGradient><linearGradient id="e" x1="3.902" x2="8.379" y1="5.722" y2="28.429" gradientUnits="userSpaceOnUse"><stop offset=".125" stop-color="#9c6cfe"/><stop offset="1" stop-color="#7a41dc"/></linearGradient><linearGradient id="f" x1="3.902" x2="8.379" y1="5.722" y2="28.429" gradientUnits="userSpaceOnUse"><stop offset=".125" stop-color="#9c6cfe"/><stop offset="1" stop-color="#7a41dc"/></linearGradient></defs></g></svg>