<svg xmlns="http://www.w3.org/2000/svg" width="32" height="32" viewBox="0 0 32 32"><g fill="none"><path fill="url(#a)" d="M3 7.5A4.5 4.5 0 0 1 7.5 3h17A4.5 4.5 0 0 1 29 7.5v17a4.5 4.5 0 0 1-4.5 4.5h-17A4.5 4.5 0 0 1 3 24.5z"/><path fill="url(#b)" d="M13.707 10.293a1 1 0 0 0-1.414 0l-5 5a1 1 0 0 0 0 1.414l5 5a1 1 0 0 0 1.414-1.414L9.414 16l4.293-4.293a1 1 0 0 0 0-1.414m4.586 1.414L22.586 16l-4.293 4.293a1 1 0 0 0 1.414 1.414l5-5a1 1 0 0 0 0-1.414l-5-5a1 1 0 1 0-1.414 1.414"/><defs><linearGradient id="a" x1="9.339" x2="23.598" y1="3" y2="29" gradientUnits="userSpaceOnUse"><stop offset=".028" stop-color="#e67eea"/><stop offset=".438" stop-color="#ad64d7"/><stop offset="1" stop-color="#794dc5"/></linearGradient><linearGradient id="b" x1="11.268" x2="18.317" y1="10.462" y2="28.708" gradientUnits="userSpaceOnUse"><stop stop-color="#fdfdfd"/><stop offset="1" stop-color="#f9dcfa"/></linearGradient></defs></g></svg>