<?xml version="1.0" encoding="UTF-8"?>
<!DOCTYPE svg PUBLIC "-//W3C//DTD SVG 1.1//EN" "http://www.w3.org/Graphics/SVG/1.1/DTD/svg11.dtd">
<svg xmlns="http://www.w3.org/2000/svg" version="1.1" width="83px" height="58px" style="shape-rendering:geometricPrecision; text-rendering:geometricPrecision; image-rendering:optimizeQuality; fill-rule:evenodd; clip-rule:evenodd" xmlns:xlink="http://www.w3.org/1999/xlink">
<g><path style="opacity:0.992" fill="#0078c2" d="M 14.5,-0.5 C 21.1667,-0.5 27.8333,-0.5 34.5,-0.5C 36.513,1.49736 38.8463,3.16403 41.5,4.5C 43.5707,2.81491 45.5707,1.14824 47.5,-0.5C 54.1667,-0.5 60.8333,-0.5 67.5,-0.5C 71.5329,15.3043 75.6996,30.971 80,46.5C 67.0839,38.9592 54.2506,31.2925 41.5,23.5C 28.3353,30.9146 15.3353,38.5813 2.5,46.5C 2.16667,46.1667 1.83333,45.8333 1.5,45.5C 6.64766,30.3911 10.981,15.0578 14.5,-0.5 Z"/></g>
<g><path style="opacity:0.984" fill="#2f3283" d="M 82.5,56.5 C 82.5,56.8333 82.5,57.1667 82.5,57.5C 54.8333,57.5 27.1667,57.5 -0.5,57.5C -0.5,57.1667 -0.5,56.8333 -0.5,56.5C 13.1894,46.9815 27.0227,37.6482 41,28.5C 54.9773,37.6482 68.8106,46.9815 82.5,56.5 Z"/></g>
</svg>
